<svg width="155" height="119" viewBox="0 0 155 119"  xmlns="http://www.w3.org/2000/svg">
<path d="M35.2001 42.5C35.0001 42.1 34.3001 41.2 32.9001 41.2H2.60011C1.20011 41.2 0.600108 42.1 0.300108 42.5C0.000108093 42.9 -0.399892 43.9 0.300108 45.1L15.5001 71.4C16.2001 72.6 17.3001 72.7 17.8001 72.7C18.3001 72.7 19.4001 72.6 20.1001 71.4L35.3001 45.1C35.9001 43.9 35.5001 42.9 35.2001 42.5ZM130.4 42.5C130.2 42.1 129.5 41.2 128.1 41.2H97.8001C96.4001 41.2 95.8001 42.1 95.5001 42.5C95.2001 42.9 94.8001 43.9 95.5001 45.1L110.7 71.4C110.924 71.8099 111.258 72.1489 111.664 72.3786C112.071 72.6084 112.534 72.7197 113 72.7C113.5 72.7 114.6 72.6 115.3 71.4L130.5 45.1C130.68 44.6869 130.764 44.2387 130.747 43.7886C130.729 43.3385 130.611 42.8981 130.4 42.5ZM154.1 1.3C153.9 0.9 153.2 0 151.8 0H121.5C120.1 0 119.5 0.9 119.2 1.3C118.9 1.7 118.5 2.7 119.2 3.9L134.4 30.2C134.624 30.6099 134.958 30.9489 135.364 31.1786C135.771 31.4084 136.234 31.5197 136.7 31.5C137.2 31.5 138.3 31.4 139 30.2L154.2 3.9C154.8 2.8 154.4 1.7 154.1 1.3ZM59.0001 83.7C58.8001 83.3 58.1001 82.4 56.7001 82.4H26.4001C25.0001 82.4 24.4001 83.3 24.1001 83.7C23.9001 84.1 23.4001 85.1 24.1001 86.3L39.3001 112.6C39.5238 113.01 39.8579 113.349 40.2644 113.579C40.6709 113.808 41.1336 113.92 41.6001 113.9C42.1001 113.9 43.2001 113.8 43.9001 112.6L59.0001 86.3C59.7001 85.1 59.2001 84.1 59.0001 83.7ZM82.8001 117.6C83.0001 117.2 83.5001 116.2 82.8001 115L67.6001 88.7C67.3764 88.2901 67.0424 87.9511 66.6359 87.7214C66.2294 87.4916 65.7666 87.3803 65.3001 87.4C64.8001 87.4 63.7001 87.5 63.0001 88.7L47.8001 115C47.1001 116.2 47.6001 117.2 47.8001 117.6C48.0001 118 48.7001 118.9 50.1001 118.9H80.4001C81.9001 118.9 82.6001 118 82.8001 117.6ZM39.3001 47.5L24.1001 73.7C23.8719 74.0952 23.7518 74.5436 23.7518 75C23.7518 75.4564 23.8719 75.9048 24.1001 76.3C24.3001 76.7 25.0001 77.6 26.4001 77.6H56.7001C58.1001 77.6 58.7001 76.7 59.0001 76.3C59.3001 75.9 59.7001 74.9 59.0001 73.7L43.9001 47.5C43.6764 47.0901 43.3424 46.7511 42.9359 46.5214C42.5294 46.2916 42.0666 46.1803 41.6001 46.2C41.1001 46.2 40.0001 46.3 39.3001 47.5ZM71.7001 76.4C71.9001 76.8 72.6001 77.7 74.0001 77.7H104.3C105.7 77.7 106.3 76.8 106.6 76.4C106.9 76 107.3 75 106.6 73.8L91.4001 47.5C90.7001 46.3 89.6001 46.2 89.1001 46.2C88.6001 46.2 87.5001 46.3 86.8001 47.5L71.7001 73.7C71.4725 74.1136 71.3532 74.578 71.3532 75.05C71.3532 75.5221 71.4725 75.9864 71.7001 76.4ZM95.5001 35.2C95.7001 35.6 96.4001 36.5 97.8001 36.5H128.1C129.5 36.5 130.1 35.6 130.4 35.2C130.6 34.8 131.1 33.8 130.4 32.6L115.2 6.3C114.5 5.1 113.4 5 112.9 5C112.4 5 111.3 5.1 110.6 6.3L95.5001 32.6C94.8001 33.7 95.3001 34.8 95.5001 35.2ZM106.6 83.7C106.4 83.3 105.7 82.4 104.3 82.4H74.0001C72.6001 82.4 72.0001 83.3 71.7001 83.7C71.4001 84.1 71.0001 85.1 71.7001 86.3L86.9001 112.6C87.1238 113.01 87.4579 113.349 87.8644 113.579C88.2709 113.808 88.7336 113.92 89.2001 113.9C89.7001 113.9 90.8001 113.8 91.5001 112.6L106.7 86.3C107.3 85.1 106.8 84.1 106.6 83.7Z" />
</svg>
